<svg xmlns="http://www.w3.org/2000/svg" width="192" height="192" viewBox="0 0 192 192"><defs><style>.a{fill:#1976d2;}.b{fill:#fff;}</style></defs><title>API_blue</title><rect class="a" width="192" height="192" rx="16"/><path class="b" d="M54.33,130.2779l-3.1759-15.66h-18.07l-3.0664,15.66H16q4.8152-20.041,9.7467-36.5229,4.9282-16.4785,9.5278-31.2663H49.9493q4.8153,14.8974,9.5825,31.5948,4.7639,16.7043,9.254,36.1944ZM42.2834,75.63q-1.0986,3.8348-2.026,7.2827-.9343,3.45-1.7523,6.79-.8212,3.342-1.5332,6.7352-.7135,3.3982-1.3689,7.0089H48.8542q-.657-3.6141-1.3142-7.0089t-1.4784-6.7352q-.8214-3.3368-1.7522-6.79Q43.3751,79.4634,42.2834,75.63Z"/><path class="b" d="M94.193,61.7221q12.921,0,20.0411,5.3114,7.115,5.3131,7.1184,17.358,0,12.1562-7.1732,17.577-7.1766,5.421-20.3148,5.421H89.0459v22.8884h-13.47V63.3648q1.9713-.4364,4.4354-.7666,2.4641-.3285,4.9828-.4928,2.5155-.1643,4.9282-.2738Q92.33,61.7239,94.193,61.7221ZM95.7262,73.44c-.8042,0-1.9165.02-3.34.0548a23.4693,23.4693,0,0,0-3.34.2738V95.6715h5.4757q6.4578,0,9.7467-2.5736,3.2855-2.5719,3.2854-8.8159,0-5.9137-3.2306-8.3778A13.8243,13.8243,0,0,0,95.7262,73.44Z"/><path class="b" d="M132.961,130.2779v-11.17h14.7844V73.6591H132.961v-11.17H176v11.17H161.3251v45.4484H176v11.17Z"/></svg>