<svg version="1.1" viewBox="0 0 48 48" xmlns="http://www.w3.org/2000/svg">
	<path d="m8 0c-4.432 0-8 3.568-8 8v32c0 4.432 3.568 8 8 8h32c4.432 0 8-3.568 8-8v-32c0-4.432-3.568-8-8-8h-32zm26.584 7.1035c0.576 0 1.0723 0.2407 1.4883 0.7207s0.62305 0.99116 0.62305 1.5352c0 0.48-0.22387 0.97628-0.67187 1.4883l-11.375 10.752 11.855 15.312c0.352 0.448 0.52734 0.97598 0.52734 1.584 0 0.704-0.27045 1.2805-0.81445 1.7285-0.512 0.448-1.1053 0.67188-1.7773 0.67188-0.64 0-1.1997-0.28923-1.6797-0.86523l-11.664-15.023-5.375 5.0879v8.3516c0 0.672-0.22388 1.2336-0.67188 1.6816s-1.0245 0.67188-1.7285 0.67188c-0.704 0-1.2805-0.22388-1.7285-0.67188-0.416-0.448-0.62305-1.0096-0.62305-1.6816v-28.943c0-0.64 0.22388-1.1848 0.67188-1.6328s1.0226-0.67188 1.7266-0.67188 1.2656 0.22388 1.6816 0.67188c0.448 0.416 0.67188 0.96081 0.67188 1.6328v14.928l17.039-16.512c0.608-0.544 1.2162-0.81641 1.8242-0.81641z" fill="#000D"/>
</svg>
