<svg version="1.1" viewBox="0 0 90 18" viewport="0 0 90 18" xmlns="http://www.w3.org/2000/svg">
	<path d="m2.1289 1.4805c-0.224-1e-7 -0.41121 0.073323-0.56055 0.22266-0.13867 0.14933-0.20898 0.33159-0.20898 0.54492v10.305c0 0.21333 0.070318 0.39364 0.20898 0.54297 0.14933 0.14933 0.33655 0.22461 0.56055 0.22461 0.21333 0 0.38868-0.075276 0.52734-0.22461 0.14933-0.14933 0.22461-0.32964 0.22461-0.54297v-1.9844l0.95898-0.86523 3.1523 3.3457c0.13867 0.17067 0.32588 0.25586 0.56055 0.25586 0.18133 0 0.35172-0.070318 0.51172-0.20898 0.17067-0.14933 0.25586-0.32964 0.25586-0.54297 0-0.20267-0.080234-0.38988-0.24023-0.56055l-3.0723-3.3281 2.7676-2.4648c0.20267-0.17067 0.30469-0.36284 0.30469-0.57617 0-0.17067-0.075276-0.32918-0.22461-0.47852-0.14933-0.16-0.31476-0.24023-0.49609-0.24023-0.192 0-0.37726 0.080234-0.55859 0.24023l-3.9199 3.5996v-6.4961c0-0.21333-0.075276-0.39559-0.22461-0.54492-0.13867-0.14933-0.31401-0.22266-0.52734-0.22266zm18.625 0c-0.224-1e-7 -0.41121 0.073323-0.56055 0.22266-0.13867 0.14933-0.20898 0.33159-0.20898 0.54492v10.305c0 0.21333 0.070318 0.39364 0.20898 0.54297 0.14933 0.14933 0.33655 0.22461 0.56055 0.22461 0.21333 0 0.38868-0.075276 0.52734-0.22461 0.14933-0.14933 0.22461-0.32964 0.22461-0.54297v-1.9844l0.95898-0.86523 3.1523 3.3457c0.13867 0.17067 0.32588 0.25586 0.56055 0.25586 0.18133 0 0.35172-0.070318 0.51172-0.20898 0.17067-0.14933 0.25586-0.32964 0.25586-0.54297 1e-6 -0.20267-0.080234-0.38988-0.24023-0.56055l-3.0723-3.3281 2.7676-2.4648c0.20267-0.17067 0.30469-0.36284 0.30469-0.57617 0-0.17067-0.075276-0.32918-0.22461-0.47852-0.14933-0.16-0.31476-0.24023-0.49609-0.24023-0.192 0-0.37726 0.080234-0.55859 0.24023l-3.9199 3.5996v-6.4961c0-0.21333-0.075276-0.39559-0.22461-0.54492-0.13867-0.14933-0.31401-0.22266-0.52734-0.22266zm23.965 0c-0.224-1e-7 -0.4043 0.073323-0.54297 0.22266-0.13867 0.13867-0.20898 0.32092-0.20898 0.54492v3.7598c-0.29867-0.37333-0.68797-0.67744-1.168-0.91211-0.48-0.23467-1.0011-0.35156-1.5664-0.35156-0.704 0-1.3508 0.18721-1.9375 0.56055s-1.0493 0.89441-1.3906 1.5664c-0.33067 0.66133-0.49609 1.4082-0.49609 2.2402 0 0.832 0.17039 1.5839 0.51172 2.2559 0.34133 0.66133 0.80396 1.1794 1.3906 1.5527s1.2434 0.56055 1.9688 0.56055c0.55467 0 1.0727-0.13372 1.5527-0.40039 0.49067-0.26667 0.8681-0.59256 1.1348-0.97656v0.44922c0 0.224 0.070318 0.40926 0.20898 0.55859 0.13867 0.13867 0.31897 0.20898 0.54297 0.20898s0.40626-0.075276 0.54492-0.22461c0.14933-0.14933 0.22461-0.32964 0.22461-0.54297v-10.305c0-0.224-0.075276-0.40626-0.22461-0.54492-0.13867-0.14933-0.32092-0.22266-0.54492-0.22266zm-31.361 3.2637c-0.704 0-1.3508 0.18721-1.9375 0.56055s-1.0493 0.89441-1.3906 1.5664c-0.33067 0.66133-0.49609 1.4082-0.49609 2.2402 0 0.832 0.16543 1.5839 0.49609 2.2559 0.34133 0.66133 0.80396 1.1794 1.3906 1.5527 0.59733 0.37333 1.259 0.56055 1.9844 0.56055 0.55467 0 1.0727-0.12877 1.5527-0.38477 0.48-0.26667 0.85743-0.58565 1.1348-0.95898v0.41602c0 0.224 0.070318 0.40926 0.20898 0.55859 0.13867 0.13867 0.31897 0.20898 0.54297 0.20898s0.40626-0.075276 0.54492-0.22461c0.14933-0.14933 0.22461-0.32964 0.22461-0.54297v-6.9453c0-0.23467-0.075276-0.41993-0.22461-0.55859-0.13867-0.14933-0.32092-0.22461-0.54492-0.22461s-0.4043 0.075276-0.54297 0.22461c-0.13867 0.14933-0.20898 0.33459-0.20898 0.55859v0.38477c-0.288-0.36267-0.6773-0.66182-1.168-0.89648-0.48-0.23467-1.0011-0.35156-1.5664-0.35156zm38.086 0c-0.77867 0-1.4919 0.18721-2.1426 0.56055-0.64 0.37333-1.1482 0.89441-1.5215 1.5664-0.37333 0.672-0.55859 1.4258-0.55859 2.2578 0 0.832 0.18526 1.5769 0.55859 2.2383 0.37333 0.66133 0.88148 1.1794 1.5215 1.5527 0.65067 0.37333 1.3639 0.56055 2.1426 0.56055 0.77867 0 1.4889-0.18721 2.1289-0.56055 0.65067-0.37333 1.1618-0.8914 1.5352-1.5527 0.37333-0.66133 0.56055-1.4063 0.56055-2.2383 0-0.832-0.18721-1.5858-0.56055-2.2578-0.37333-0.672-0.88449-1.1931-1.5352-1.5664-0.64-0.37333-1.3502-0.56055-2.1289-0.56055zm12.82 0c-0.704 0-1.3508 0.18721-1.9375 0.56055s-1.0493 0.89441-1.3906 1.5664c-0.33067 0.66133-0.49609 1.4082-0.49609 2.2402 0 0.832 0.16543 1.5839 0.49609 2.2559 0.34133 0.66133 0.80396 1.1794 1.3906 1.5527 0.59733 0.37333 1.259 0.56055 1.9844 0.56055 0.55467 0 1.0727-0.12877 1.5527-0.38477 0.48-0.26667 0.85743-0.58565 1.1348-0.95898v0.41602c0 0.224 0.070318 0.40926 0.20898 0.55859 0.13867 0.13867 0.31897 0.20898 0.54297 0.20898s0.40626-0.075276 0.54492-0.22461c0.14933-0.14933 0.22461-0.32964 0.22461-0.54297v-6.9453c0-0.23467-0.075276-0.41993-0.22461-0.55859-0.13867-0.14933-0.32092-0.22461-0.54492-0.22461s-0.4043 0.075276-0.54297 0.22461c-0.13867 0.14933-0.20898 0.33459-0.20898 0.55859v0.38477c-0.288-0.36267-0.6773-0.66182-1.168-0.89648-0.48-0.23467-1.0011-0.35156-1.5664-0.35156zm10.707 0.048828c-0.55467 0-1.0777 0.13177-1.5684 0.39844-0.49067 0.26667-0.86314 0.5876-1.1191 0.96094v-0.46484c0-0.224-0.075276-0.40926-0.22461-0.55859-0.13867-0.14933-0.31897-0.22461-0.54297-0.22461s-0.40626 0.075276-0.54492 0.22461c-0.13867 0.14933-0.20703 0.33459-0.20703 0.55859v10.064c0 0.224 0.068364 0.40626 0.20703 0.54492 0.14933 0.14933 0.33159 0.22266 0.54492 0.22266 0.224 0 0.4043-0.073323 0.54297-0.22266 0.14933-0.14933 0.22461-0.33159 0.22461-0.54492v-3.5527c0.29867 0.352 0.68797 0.65115 1.168 0.89648s0.99807 0.36914 1.5527 0.36914c0.704 0 1.3489-0.18721 1.9355-0.56055s1.0443-0.88644 1.375-1.5371c0.34133-0.66133 0.51367-1.4063 0.51367-2.2383 0-0.832-0.17234-1.5789-0.51367-2.2402-0.33067-0.66133-0.78833-1.1744-1.375-1.5371-0.58667-0.37333-1.2434-0.55859-1.9688-0.55859zm9.8125 0c-0.55467 0-1.0777 0.13177-1.5684 0.39844-0.49067 0.26667-0.86314 0.5876-1.1191 0.96094v-0.46484c0-0.224-0.075276-0.40926-0.22461-0.55859-0.13867-0.14933-0.31897-0.22461-0.54297-0.22461s-0.40626 0.075276-0.54492 0.22461c-0.13867 0.14933-0.20703 0.33459-0.20703 0.55859v10.064c0 0.224 0.068364 0.40626 0.20703 0.54492 0.14933 0.14933 0.33159 0.22266 0.54492 0.22266 0.224 0 0.4043-0.073323 0.54297-0.22266 0.14933-0.14933 0.22461-0.33159 0.22461-0.54492v-3.5527c0.29867 0.352 0.68797 0.65115 1.168 0.89648s0.99807 0.36914 1.5527 0.36914c0.704 0 1.3489-0.18721 1.9355-0.56055s1.0443-0.88644 1.375-1.5371c0.34133-0.66133 0.51367-1.4063 0.51367-2.2383 0-0.832-0.17234-1.5789-0.51367-2.2402-0.33067-0.66133-0.78833-1.1744-1.375-1.5371-0.58667-0.37333-1.2434-0.55859-1.9688-0.55859zm-55.393 0.14258c-0.21333 0-0.39559 0.075276-0.54492 0.22461-0.13867 0.14933-0.20703 0.32964-0.20703 0.54297v4.2578c0 1.1093 0.30411 1.9731 0.91211 2.5918 0.608 0.608 1.4668 0.91211 2.5762 0.91211 1.12 0 1.9838-0.30411 2.5918-0.91211 0.61867-0.61867 0.92773-1.4825 0.92773-2.5918v-4.2578c0-0.21333-0.075276-0.39364-0.22461-0.54297-0.13867-0.14933-0.31897-0.22461-0.54297-0.22461-0.21333 0-0.39559 0.075276-0.54492 0.22461-0.13867 0.14933-0.20703 0.32964-0.20703 0.54297v4.2578c0 0.69333-0.17234 1.2144-0.51367 1.5664-0.34133 0.352-0.83566 0.5293-1.4863 0.5293-1.312 0-1.9688-0.69837-1.9688-2.0957v-4.2578c0-0.21333-0.075276-0.39364-0.22461-0.54297-0.13867-0.14933-0.31897-0.22461-0.54297-0.22461zm-15.811 1.2168c0.50133-1e-7 0.94412 0.13372 1.3281 0.40039 0.39467 0.256 0.69878 0.60669 0.91211 1.0547 0.224 0.448 0.33594 0.94924 0.33594 1.5039 0 0.56533-0.11194 1.0735-0.33594 1.5215-0.21333 0.448-0.51744 0.79869-0.91211 1.0547-0.384 0.256-0.82679 0.38477-1.3281 0.38477s-0.94908-0.12877-1.3438-0.38477c-0.384-0.256-0.68811-0.60669-0.91211-1.0547-0.21333-0.448-0.32031-0.95615-0.32031-1.5215 0-0.56533 0.10698-1.0715 0.32031-1.5195 0.224-0.448 0.52811-0.80064 0.91211-1.0566 0.39467-0.256 0.84242-0.38281 1.3438-0.38281zm27.875 0c0.50133 0 0.94412 0.12681 1.3281 0.38281 0.39467 0.256 0.69878 0.6136 0.91211 1.0723 0.224 0.448 0.33594 0.94924 0.33594 1.5039 0 0.56533-0.11194 1.0735-0.33594 1.5215-0.21333 0.448-0.51744 0.79869-0.91211 1.0547-0.384 0.256-0.82679 0.38477-1.3281 0.38477s-0.94908-0.12877-1.3438-0.38477c-0.384-0.256-0.68811-0.60669-0.91211-1.0547-0.21333-0.448-0.32031-0.95615-0.32031-1.5215 0-0.55467 0.10698-1.0559 0.32031-1.5039 0.224-0.45867 0.52811-0.81627 0.91211-1.0723 0.39467-0.256 0.84242-0.38281 1.3438-0.38281zm9.9883 0c0.50133 0 0.956 0.12681 1.3613 0.38281 0.416 0.24533 0.73994 0.59797 0.97461 1.0566 0.24533 0.448 0.36914 0.96111 0.36914 1.5371-1e-6 0.56533-0.12381 1.0715-0.36914 1.5195-0.23467 0.448-0.55861 0.79869-0.97461 1.0547-0.40533 0.24533-0.86 0.36914-1.3613 0.36914-0.50133 0-0.959-0.12381-1.375-0.36914-0.40533-0.256-0.73123-0.60669-0.97656-1.0547-0.23467-0.448-0.35156-0.9542-0.35156-1.5195 0-0.576 0.1169-1.0891 0.35156-1.5371 0.24533-0.45867 0.57123-0.81131 0.97656-1.0566 0.416-0.256 0.87367-0.38281 1.375-0.38281zm13.043 0c0.50133-1e-7 0.94412 0.13372 1.3281 0.40039 0.39467 0.256 0.69878 0.60669 0.91211 1.0547 0.224 0.448 0.33594 0.94924 0.33594 1.5039 0 0.56533-0.11194 1.0735-0.33594 1.5215-0.21333 0.448-0.51744 0.79869-0.91211 1.0547-0.384 0.256-0.82679 0.38477-1.3281 0.38477s-0.94908-0.12877-1.3438-0.38477c-0.384-0.256-0.68811-0.60669-0.91211-1.0547-0.21333-0.448-0.32031-0.95615-0.32031-1.5215 0-0.56533 0.10698-1.0715 0.32031-1.5195 0.224-0.448 0.52811-0.80064 0.91211-1.0566 0.39467-0.256 0.84242-0.38281 1.3438-0.38281zm10.309 0.046875c0.49067 0 0.93346 0.12877 1.3281 0.38477s0.69878 0.60864 0.91211 1.0566c0.224 0.43733 0.33594 0.93361 0.33594 1.4883 0 0.55467-0.11194 1.0559-0.33594 1.5039-0.21333 0.43733-0.51744 0.78306-0.91211 1.0391s-0.83746 0.38477-1.3281 0.38477c-0.50133 0-0.94908-0.12381-1.3438-0.36914-0.39467-0.256-0.70374-0.60669-0.92773-1.0547-0.21333-0.448-0.32031-0.94924-0.32031-1.5039 0-0.55467 0.10698-1.0579 0.32031-1.5059 0.224-0.448 0.53307-0.79373 0.92773-1.0391 0.39467-0.256 0.84242-0.38477 1.3438-0.38477zm9.8125 0c0.49067 0 0.93346 0.12877 1.3281 0.38477s0.69878 0.60864 0.91211 1.0566c0.224 0.43733 0.33594 0.93361 0.33594 1.4883 0 0.55467-0.11194 1.0559-0.33594 1.5039-0.21333 0.43733-0.51744 0.78306-0.91211 1.0391s-0.83746 0.38477-1.3281 0.38477c-0.50133 0-0.94908-0.12381-1.3438-0.36914-0.39467-0.256-0.70374-0.60669-0.92773-1.0547-0.21333-0.448-0.32031-0.94924-0.32031-1.5039 0-0.55467 0.10698-1.0579 0.32031-1.5059 0.224-0.448 0.53307-0.79373 0.92773-1.0391 0.39467-0.256 0.84242-0.38477 1.3438-0.38477zm-26.645 5.1855c-0.256 0-0.45313 0.068364-0.5918 0.20703-0.128 0.13867-0.19141 0.3358-0.19141 0.5918v0.30469c0 0.26667 0.063406 0.46876 0.19141 0.60742 0.13867 0.13867 0.3358 0.20898 0.5918 0.20898h0.16016c0.53333-1e-6 0.80078-0.27241 0.80078-0.81641v-0.30469c0-0.256-0.070318-0.45313-0.20898-0.5918-0.128-0.13867-0.32513-0.20703-0.5918-0.20703h-0.16016z" fill-opacity=".86667"/>
</svg>
