<svg xmlns="http://www.w3.org/2000/svg" xmlns:xlink="http://www.w3.org/1999/xlink" width="1024" height="1024" viewBox="0 0 1024 1024"><defs><style>.a{fill:none;}.b{clip-path:url(#a);}.c{fill:url(#b);}.d{fill:#fff;}</style><clipPath id="a" transform="translate(0 0)"><circle class="a" cx="512" cy="512" r="512"/></clipPath><linearGradient id="b" x1="512" y1="1024" x2="512" gradientUnits="userSpaceOnUse"><stop offset="0" stop-color="#3299ff"/><stop offset="1" stop-color="#007fff"/></linearGradient></defs><title>icon8r</title><g class="b"><rect class="c" width="1024" height="1024"/><path class="d" d="M758.0149,755.2908a59.9509,59.9509,0,0,1,3.6307,19.518q0,24.51-18.61,40.8514A63.3815,63.3815,0,0,1,699.9147,832a50.1241,50.1241,0,0,1-22.695-5.4461A49.475,49.475,0,0,1,659.0646,811.12L462.071,551.49l-86.2413,82.61V776.6242q0,24.51-15.8866,39.9437Q344.05,832.014,318.6385,832q-24.5106,0-40.3975-15.8859-15.8932-15.8733-15.8866-39.49V251.9149q0-23.5962,16.34-39.49,16.34-15.8723,41.7591-15.8859,24.5106,0,39.9431,15.4321,15.426,15.447,15.4327,39.9437V498.8368L666.3261,212.8789Q687.1983,192.0067,710.8083,192q20.8722,0,35.4053,17.2481,14.51,17.2548,14.5243,36.3117,0,19.0644-16.3411,35.4046l-197.9,188.823,202.44,267.8008A65.2277,65.2277,0,0,1,758.0149,755.2908Z" transform="translate(0 0)"/></g></svg>